<svg width="60" height="50" viewBox="0 0 60 50" fill="none" xmlns="http://www.w3.org/2000/svg">
<path d="M15.5209 0.27523C14.2824 2.20183 12.5393 5.43578 12.6769 5.57339C12.7686 5.66514 19.1448 5.77982 26.8283 5.80275C39.5806 5.84862 40.7962 5.87156 40.865 6.2156C40.9108 6.44495 40.498 7.29358 39.9934 8.1422C39.4659 9.01376 38.9384 9.93119 38.8237 10.1835C38.6861 10.4587 38.4567 10.9174 38.2732 11.2156C38.1127 11.5367 38.0209 11.8807 38.0668 11.9725C38.2503 12.2706 51.2319 12.1789 51.2319 11.8807C51.2319 11.7431 50.9338 11.1239 50.5439 10.5046C50.154 9.90826 49.8558 9.31193 49.8558 9.19725C49.8558 9.1055 49.5576 8.57798 49.1677 8.07339C48.8008 7.54587 48.4797 7.04128 48.4797 6.97248C48.4797 6.88073 48.0439 6.07798 47.4934 5.18349C46.943 4.28899 46.4384 3.3945 46.3466 3.21101C46.2549 3.02752 45.9797 2.54587 45.7274 2.1789C45.4751 1.78899 45.154 1.23853 45.0393 0.917431C44.9017 0.619266 44.6494 0.275229 44.5118 0.183486C44.3512 0.0917429 37.8145 0 29.9705 0C18.8008 0 15.6586 0.0688075 15.5209 0.27523ZM8.43378 12.6835C8.25029 12.7982 7.998 13.0963 7.86039 13.3716C7.74571 13.6468 7.56222 14.0367 7.42461 14.2202C6.7824 15.2064 5.13103 18.0734 5.13103 18.211C5.13103 18.3028 4.94754 18.6468 4.69525 18.9908C4.46589 19.3349 3.68607 20.6422 2.95213 21.9037C2.21818 23.1651 1.53011 24.2202 1.41543 24.2661C1.09433 24.4037 1.20901 25.0917 1.73653 25.9174C2.69983 27.4312 2.81451 27.6376 3.04387 28.1422C3.45672 29.0596 4.44295 30.5046 4.64938 30.5046C4.76406 30.5046 5.10809 30 5.42919 29.4037C6.55305 27.2706 9.25947 22.5688 9.97048 21.5138C10.2228 21.1697 10.4063 20.8257 10.4063 20.7569C10.4063 20.6881 11.1861 19.3349 12.1264 17.7523C13.0668 16.1697 13.8466 14.8165 13.8466 14.7248C13.8466 14.656 14.1219 14.1972 14.443 13.7156C14.787 13.2339 14.9934 12.7523 14.9017 12.6605C14.6494 12.4312 8.84662 12.4541 8.43378 12.6835ZM23.7549 12.6147C22.7228 12.7294 22.7228 12.7294 21.6219 14.9083C21.3466 15.4817 20.7732 16.445 20.3833 17.0872C19.9705 17.7064 19.3053 18.8532 18.8925 19.6101C18.4797 20.367 18.0209 21.1468 17.8833 21.3303C17.7457 21.5138 17.4246 22.0413 17.1723 22.4771C16.3696 23.922 15.7044 25.0917 15.2228 25.9174C14.3971 27.3165 13.8008 28.3486 11.1402 32.9817L8.52552 37.5L8.93837 38.3028C9.16772 38.7385 9.78699 39.8165 10.3145 40.711C10.8191 41.5826 11.3237 42.5459 11.4154 42.8211C11.5072 43.1193 11.6677 43.3486 11.7595 43.3486C11.8512 43.3486 12.1494 43.7844 12.4475 44.3119C12.7228 44.8624 13.1586 45.5963 13.4108 45.9862C13.6402 46.3532 13.9842 46.9725 14.1677 47.3624C14.3512 47.7294 14.8099 48.4862 15.1998 49.0367L15.9108 50H44.3741L44.7641 49.3119C44.9705 48.945 45.2228 48.6239 45.3375 48.6239C45.4292 48.6239 45.498 48.5092 45.498 48.3716C45.498 48.2339 45.842 47.5229 46.2778 46.8119C46.6907 46.1009 47.3329 45 47.6769 44.3807C48.0209 43.7385 49.0072 42.0413 49.8558 40.5963C55.0852 31.6743 54.9934 31.8578 54.6494 31.6284C54.4659 31.5138 54.0301 31.4679 53.6631 31.5367C53.2962 31.6055 51.943 31.6514 50.6586 31.6514H48.2962L46.8741 34.1055C46.0943 35.4817 44.5806 38.0505 43.5255 39.8394C42.4705 41.6284 41.5989 43.1881 41.5989 43.3257C41.5989 44.0138 40.5439 44.0826 29.8329 44.0596C23.8925 44.0367 19.0301 44.0138 19.0072 43.9679C18.4108 43.211 15.4521 37.867 15.4521 37.5917C15.4521 37.3624 15.9108 36.3991 16.4842 35.4817C17.0576 34.5413 17.5163 33.6927 17.5163 33.6239C17.5163 33.5321 17.7686 33.1193 18.0897 32.7064C18.4108 32.2936 18.6631 31.8807 18.6631 31.789C18.6631 31.6972 19.1907 30.7569 19.8099 29.6789C20.4521 28.6009 20.9567 27.7064 20.9567 27.6606C20.9567 27.5688 23.5714 23.0963 24.5118 21.6055C24.8558 21.078 25.3833 20.1606 25.6815 19.5642C26.0026 18.9679 26.7824 17.6376 27.4017 16.5826C28.0209 15.5275 28.5255 14.6101 28.5255 14.5183C28.5255 14.4495 28.8008 14.0367 29.1219 13.6009C29.443 13.1651 29.6494 12.7523 29.5806 12.6605C29.3971 12.4771 25.154 12.4541 23.7549 12.6147Z" fill="black"/>
<path d="M33.5946 19.4723C33.2735 19.8392 32.7459 20.642 32.4248 21.2383C31.6679 22.7291 30.9799 23.9677 25.2918 33.7613C24.7872 34.5869 24.3973 35.3668 24.3973 35.4585C24.3973 35.5502 24.1679 35.8713 23.9156 36.1466C23.2964 36.8117 23.4799 37.4998 24.2367 37.2934C24.512 37.2246 27.5854 37.1558 31.0716 37.1558H37.379L37.8836 36.1695C38.5258 34.931 39.3285 33.5319 39.856 32.7521C40.567 31.6741 40.3606 31.5824 36.9891 31.5594C33.9845 31.5365 33.9157 31.5365 33.8468 31.0319C33.801 30.7108 34.2368 29.7246 34.9707 28.509C35.6358 27.408 36.3698 26.1236 36.5991 25.642L37.012 24.7704H47.7918C54.5579 24.7704 58.5716 24.6787 58.5716 24.5411C58.5716 24.2888 55.9111 19.7704 55.4065 19.197C55.0854 18.8301 54.3285 18.8071 44.6267 18.8071L34.1909 18.8301L33.5946 19.4723Z" fill="black"/>
</svg>
